<svg width="60" height="60" viewBox="0 0 60 60" fill="none" xmlns="http://www.w3.org/2000/svg">
<path d="M58.5772 24.7588L55.7261 24.2052C55.0639 21.2525 53.9084 18.4712 52.2791 15.9087L53.8359 13.5735C54.3007 12.8763 54.2088 11.948 53.6162 11.3555L48.6445 6.38379C48.052 5.79117 47.1238 5.6993 46.4265 6.16406L44.0913 7.72078C41.5288 6.09152 38.7475 4.93594 35.7948 4.27383L35.2412 1.42266C35.0808 0.596602 34.3573 0 33.5156 0H26.4844C25.6427 0 24.9192 0.596601 24.7588 1.42277L24.2052 4.27395C21.2525 4.93605 18.4712 6.09164 15.9087 7.7209L13.5735 6.16418C12.8763 5.69953 11.948 5.79141 11.3555 6.38391L6.38379 11.3555C5.79129 11.948 5.69941 12.8763 6.16406 13.5735L7.72078 15.9087C6.09152 18.4713 4.93594 21.2527 4.27383 24.2052L1.42266 24.7588C0.596602 24.9192 0 25.6427 0 26.4844V33.5156C0 34.3573 0.596601 35.0808 1.42277 35.2412L4.27395 35.7948C4.93605 38.7473 6.09164 41.5288 7.7209 44.0913L6.16406 46.4264C5.6993 47.1237 5.79117 48.052 6.38379 48.6444L11.3555 53.6162C11.9479 54.2087 12.8761 54.3006 13.5735 53.8359L15.9087 52.2792C18.4713 53.9085 21.2527 55.0641 24.2052 55.7262L24.7588 58.5773C24.9192 59.4034 25.6427 60 26.4844 60H33.5156C34.3573 60 35.0808 59.4034 35.2412 58.5772L35.7948 55.7261C38.7473 55.0639 41.5288 53.9084 44.0913 52.2791L46.4264 53.8359C47.1237 54.3006 48.052 54.2088 48.6444 53.6162L53.6161 48.6445C54.2086 48.052 54.3005 47.1237 53.8358 46.4265L52.2791 44.0913C53.9084 41.5287 55.0639 38.7473 55.7261 35.7948L58.5772 35.2412C59.4034 35.0808 60 34.3573 60 33.5156V26.4844C60 25.6427 59.4034 24.9192 58.5772 24.7588ZM56.4844 32.0662L53.8993 32.5682C53.185 32.7069 52.63 33.2714 52.5033 33.988C51.9226 37.2749 50.652 40.3346 48.7266 43.082C48.3108 43.6753 48.3016 44.463 48.7035 45.0659L50.1112 47.1777L47.1775 50.1115L45.0657 48.7037C44.4628 48.3018 43.6752 48.3109 43.0818 48.7268C40.3344 50.6522 37.2748 51.9229 33.9877 52.5036C33.2711 52.6303 32.7066 53.1853 32.5679 53.8997L32.0662 56.4844H27.9336L27.4317 53.8993C27.293 53.185 26.7285 52.63 26.0119 52.5033C22.725 51.9226 19.6652 50.652 16.9179 48.7266C16.3246 48.3108 15.537 48.3016 14.934 48.7035L12.8222 50.1112L9.8884 47.1775L11.2962 45.0657C11.6981 44.4628 11.689 43.6752 11.2731 43.0818C9.3477 40.3344 8.07703 37.2748 7.49625 33.9877C7.36957 33.2711 6.81457 32.7066 6.1002 32.5679L3.51562 32.0662V27.9336L6.10066 27.4317C6.81504 27.293 7.37004 26.7285 7.49672 26.0119C8.07738 22.725 9.34805 19.6652 11.2734 16.9179C11.6892 16.3246 11.6984 15.5368 11.2965 14.934L9.88875 12.8222L12.8225 9.8884L14.9344 11.2962C15.5372 11.6981 16.3249 11.6889 16.9182 11.2731C19.6655 9.3477 22.7251 8.07715 26.0122 7.49625C26.7288 7.36969 27.2933 6.81469 27.432 6.10031L27.9338 3.51562H32.0664L32.5683 6.10066C32.707 6.81504 33.2714 7.37004 33.988 7.49672C37.2751 8.07738 40.3348 9.34805 43.082 11.2734C43.6753 11.6892 44.4629 11.6985 45.0659 11.2965L47.1777 9.88875L50.1115 12.8225L48.7036 14.9344C48.3018 15.5373 48.3109 16.3249 48.7267 16.9182C50.6521 19.6654 51.9227 22.7251 52.5035 26.0122C52.6302 26.7288 53.1852 27.2933 53.8996 27.432L56.4844 27.9338V32.0662Z" fill="#A60000"/>
<path d="M30 10.6641C19.3382 10.6641 10.6641 19.3382 10.6641 30C10.6641 40.7133 19.3871 49.3359 30 49.3359C40.5964 49.3359 49.3359 40.7268 49.3359 30C49.3359 19.3382 40.6618 10.6641 30 10.6641ZM28.2422 45.7221V39.9468C28.2422 39.2018 27.7726 38.5377 27.0702 38.2894C24.1295 37.25 21.9993 34.7359 21.3896 31.7566C25.1798 31.7566 34.6835 31.7566 38.6105 31.7566C38.0009 34.7359 35.8706 37.25 32.9299 38.2894C32.2275 38.5377 31.7579 39.2017 31.7579 39.9468V45.7221C31.1805 45.7862 30.5943 45.8203 30.0001 45.8203C29.406 45.8203 28.8196 45.7862 28.2422 45.7221ZM24.7266 28.2422H21.3925C21.8273 26.1539 23.0224 24.2932 24.7266 23.0145V28.2422ZM35.2734 28.2422V23.0145C36.9777 24.2933 38.1727 26.1539 38.6075 28.2422H35.2734ZM35.2734 44.9154V41.1204C39.5257 39.1024 42.3047 34.7801 42.3047 29.9999C42.3047 24.8307 39.0093 20.1862 34.1044 18.4426C33.5661 18.2512 32.9686 18.3334 32.502 18.6627C32.0353 18.992 31.7578 19.5277 31.7578 20.0988V28.2422H28.2422V20.0991C28.2422 19.5279 27.9647 18.9923 27.498 18.6629C27.0313 18.3335 26.4336 18.2515 25.8956 18.4429C20.9907 20.1864 17.6953 24.8309 17.6953 30C17.6953 34.7801 20.4743 39.1024 24.7266 41.1205V44.9155C18.5883 42.7389 14.1797 36.8752 14.1797 30.0001C14.1797 21.2768 21.2767 14.1798 30 14.1798C38.7233 14.1798 45.8203 21.2768 45.8203 30.0001C45.8203 36.875 41.4117 42.7388 35.2734 44.9154Z" fill="#A60000"/>
</svg>
