<svg width="60" height="60" viewBox="0 0 60 60" fill="none" xmlns="http://www.w3.org/2000/svg">
<path d="M30 0C15.4611 0 3.63281 11.8283 3.63281 26.3672C3.63281 27.9784 3.63281 40.4423 3.63281 40.6641C3.63281 43.5718 5.99848 45.9375 8.90625 45.9375H10.9664C11.692 47.9834 13.6459 49.4531 15.9375 49.4531C18.8453 49.4531 21.2109 47.0875 21.2109 44.1797V29.8828C21.2109 26.975 18.8453 24.6094 15.9375 24.6094C13.6459 24.6094 11.692 26.0791 10.9664 28.125H8.90625C8.28996 28.125 7.69863 28.2322 7.14844 28.4273V26.3672C7.14844 13.7668 17.3996 3.51562 30 3.51562C42.6004 3.51562 52.8516 13.7668 52.8516 26.3672V28.4273C52.3014 28.2322 51.71 28.125 51.0938 28.125H49.0336C48.308 26.0791 46.3541 24.6094 44.0625 24.6094C41.1547 24.6094 38.7891 26.975 38.7891 29.8828V44.1797C38.7891 47.0875 41.1547 49.4531 44.0625 49.4531C44.5947 49.4531 45.1084 49.3732 45.5931 49.2259C44.9355 51.3894 42.9225 52.9688 40.5469 52.9688H34.9711C34.2455 50.9229 32.2916 49.4531 30 49.4531C27.0922 49.4531 24.7266 51.8188 24.7266 54.7266C24.7266 57.6343 27.0922 60 30 60C32.2916 60 34.2455 58.5302 34.9711 56.4844H40.5469C45.3932 56.4844 49.3359 52.5416 49.3359 47.6953V45.9375H51.0938C54.0015 45.9375 56.3672 43.5718 56.3672 40.6641C56.3672 40.4456 56.3672 27.9771 56.3672 26.3672C56.3672 11.8283 44.5389 0 30 0ZM14.1797 29.8828C14.1797 28.9136 14.9682 28.125 15.9375 28.125C16.9068 28.125 17.6953 28.9136 17.6953 29.8828V44.1797C17.6953 45.1489 16.9068 45.9375 15.9375 45.9375C14.9682 45.9375 14.1797 45.1489 14.1797 44.1797V29.8828ZM8.90625 31.6406H10.6641V42.4219H8.90625C7.93699 42.4219 7.14844 41.6333 7.14844 40.6641V33.3984C7.14844 32.4292 7.93699 31.6406 8.90625 31.6406ZM30 56.4844C29.0307 56.4844 28.2422 55.6958 28.2422 54.7266C28.2422 53.7573 29.0307 52.9688 30 52.9688C30.9693 52.9688 31.7578 53.7573 31.7578 54.7266C31.7578 55.6958 30.9693 56.4844 30 56.4844ZM45.8203 44.1797C45.8203 45.1489 45.0318 45.9375 44.0625 45.9375C43.0932 45.9375 42.3047 45.1489 42.3047 44.1797V29.8828C42.3047 28.9136 43.0932 28.125 44.0625 28.125C45.0318 28.125 45.8203 28.9136 45.8203 29.8828V44.1797ZM52.8516 40.6641C52.8516 41.6333 52.063 42.4219 51.0938 42.4219H49.3359V31.6406H51.0938C52.063 31.6406 52.8516 32.4292 52.8516 33.3984V40.6641Z" fill="#A60000"/>
</svg>
