<svg width="16" height="16" viewBox="0 0 16 16" fill="none" xmlns="http://www.w3.org/2000/svg">
<path d="M8 0C3.60596 0 0 3.60596 0 8C0 9.4502 0.390991 10.8619 1.13245 12.097L0 16L3.90295 14.8676C5.13806 15.609 6.5498 16 8 16C12.394 16 16 12.394 16 8C16 3.60596 12.394 0 8 0ZM13.0017 11.3802L12.6295 11.7524C12.1029 12.2791 10.8918 12.2373 10.1136 12.087C7.52612 11.5873 4.5094 8.66321 3.92761 6.13098C3.63953 4.87659 3.79858 3.78601 4.2146 3.36987L4.58679 2.99768C4.79224 2.79236 5.12598 2.7926 5.33118 2.99768L6.82019 4.48682C6.91956 4.58618 6.974 4.7179 6.974 4.85889C6.974 4.99988 6.91956 5.13171 6.82019 5.23071L6.44812 5.60327C6.03796 6.0144 6.03796 6.68225 6.44812 7.09241L8.90698 9.51892C9.31836 9.9303 9.98413 9.93079 10.3961 9.51892L10.7683 9.14685C10.9604 8.95361 11.3193 8.953 11.5131 9.14685L13.0017 10.6355C13.2039 10.8368 13.2115 11.1703 13.0017 11.3802Z" fill="#F7FAFE"/>
</svg>
