<svg width="14" height="18" viewBox="0 0 14 18" fill="none" xmlns="http://www.w3.org/2000/svg">
<path d="M13.1526 5.58956C13.1535 5.58868 8.3371 0.772277 8.3371 0.772277C7.8588 0.295699 7.19962 0 6.47266 0H0.0742188V18H13.9258V7.45312C13.9258 6.7262 13.6301 6.06702 13.1526 5.58956ZM9.10938 3.03609L10.8897 4.81641H9.10938V3.03609ZM12.8711 16.9453H1.12891V1.05469H6.47266C7.34499 1.05469 8.05469 1.76439 8.05469 2.63672V5.87109H11.2891C12.1614 5.87109 12.8711 6.58079 12.8711 7.45312V16.9453Z" fill="#A60000"/>
<path d="M2.71094 14.3086H8.91602V15.3633H2.71094V14.3086Z" fill="#A60000"/>
<path d="M2.71094 12.1992H11.2891V13.2539H2.71094V12.1992Z" fill="#A60000"/>
<path d="M2.71094 10.0898H11.2891V11.1445H2.71094V10.0898Z" fill="#A60000"/>
<path d="M2.71094 7.98047H11.2891V9.03516H2.71094V7.98047Z" fill="#A60000"/>
</svg>
