<svg width="60" height="60" viewBox="0 0 60 60" fill="none" xmlns="http://www.w3.org/2000/svg">
<path d="M29.9963 0L3.63281 11.3814V20.918C3.63281 37.7957 13.7096 53.02 29.3042 59.7034L29.9963 60L30.6889 59.7034C46.2836 53.02 56.3603 37.7957 56.3603 20.918V11.3814L29.9963 0ZM52.8452 20.918C52.8452 36.1368 43.9023 49.8898 29.9963 56.1676C16.0909 49.8898 7.14798 36.1368 7.14798 20.918V13.6926L29.9963 3.82874L52.8452 13.6926V20.918Z" fill="#A60000"/>
<path d="M24.7238 14.3029V19.054C24.1433 19.3318 23.5853 19.6559 23.0529 20.024L18.934 17.6459L13.661 26.7783L17.7401 29.1335C17.6797 29.7881 17.6761 30.412 17.7401 31.1087L13.661 33.4639L18.934 42.5968L23.0529 40.2182C23.5853 40.5863 24.1433 40.9104 24.7238 41.1882V45.9394H35.2693V41.1887C35.8497 40.9104 36.4077 40.5867 36.9401 40.2182L41.0591 42.5968L46.3321 33.4639L42.2529 31.1087C42.3134 30.4541 42.317 29.8307 42.2529 29.1335L46.3321 26.7787L41.0591 17.6459L36.9401 20.024C36.4077 19.6559 35.8497 19.3318 35.2693 19.054V14.3033H24.7238V14.3029ZM35.6611 23.47L36.606 24.2762L39.7728 22.4478L41.5301 25.492L38.394 27.3024L38.6201 28.5237C38.8389 29.7071 38.8385 30.5379 38.6201 31.7189L38.394 32.9402L41.5301 34.7507L39.7728 37.7948L36.606 35.9665L35.6611 36.7722C34.8408 37.4726 33.9189 38.0081 32.9214 38.3638L31.7541 38.7799V42.4247H28.239V38.7795L27.0717 38.3634C26.0737 38.0077 25.1518 37.4726 24.3315 36.7722L23.3871 35.9665L20.2203 37.7948L18.463 34.7507L21.5991 32.9402L21.373 31.7189C21.1537 30.5356 21.1541 29.7043 21.373 28.5233L21.5991 27.3024L18.463 25.492L20.2203 22.4478L23.3871 24.2762L24.3315 23.47C25.1523 22.7701 26.0742 22.2345 27.0717 21.8788L28.239 21.4627V17.818H31.7541V21.4627L32.9214 21.8788C33.9189 22.2345 34.8408 22.7701 35.6611 23.47Z" fill="#A60000"/>
<path d="M24.7239 30.1214C24.7239 33.0286 27.0891 35.3939 29.9964 35.3939C32.9041 35.3939 35.2694 33.0286 35.2694 30.1214C35.2694 27.2141 32.9041 24.8484 29.9964 24.8484C27.0891 24.8484 24.7239 27.2141 24.7239 30.1214ZM31.7542 30.1214C31.7542 31.0905 30.9659 31.8787 29.9964 31.8787C29.0273 31.8787 28.239 31.0905 28.239 30.1214C28.239 29.1523 29.0273 28.3636 29.9964 28.3636C30.9659 28.3636 31.7542 29.1523 31.7542 30.1214Z" fill="#A60000"/>
</svg>
